<svg id="Layer_3" data-name="Layer 3" xmlns="http://www.w3.org/2000/svg" xmlns:xlink="http://www.w3.org/1999/xlink" viewBox="0 0 443.25 756.18"><defs><style>.cls-1{fill:url(#linear-gradient);}.cls-2{fill:url(#linear-gradient-2);}.cls-3{fill:url(#linear-gradient-3);}.cls-4{fill:url(#linear-gradient-4);}</style><linearGradient id="linear-gradient" x1="204.52" y1="566.9" x2="207.06" y2="284.24" gradientUnits="userSpaceOnUse"><stop offset="0" stop-color="#0077b6"/><stop offset="0.25" stop-color="#0075b3"/><stop offset="0.4" stop-color="#0070ab"/><stop offset="0.52" stop-color="#00669c"/><stop offset="0.64" stop-color="#005988"/><stop offset="0.74" stop-color="#00476d"/><stop offset="0.84" stop-color="#00324c"/><stop offset="0.92" stop-color="#001926"/><stop offset="1"/></linearGradient><linearGradient id="linear-gradient-2" x1="163.6" y1="284.73" x2="324.96" y2="73.32" gradientUnits="userSpaceOnUse"><stop offset="0" stop-color="#0077b6"/><stop offset="1" stop-color="#fff"/></linearGradient><linearGradient id="linear-gradient-3" x1="230.04" y1="306.93" x2="412.85" y2="184.38" gradientUnits="userSpaceOnUse"><stop offset="0" stop-color="#0077b6"/><stop offset="0.12" stop-color="#0479b7"/><stop offset="0.24" stop-color="#1180bb"/><stop offset="0.37" stop-color="#278cc1"/><stop offset="0.5" stop-color="#459cca"/><stop offset="0.63" stop-color="#6cb1d5"/><stop offset="0.77" stop-color="#9ccae3"/><stop offset="0.9" stop-color="#d3e8f2"/><stop offset="1" stop-color="#fff"/></linearGradient><linearGradient id="linear-gradient-4" x1="250.05" y1="519.57" x2="206.13" y2="355.14" xlink:href="#linear-gradient"/></defs><path class="cls-1" d="M320.6,503c23.41-31.08,30.11-70.92,17.92-106.59-10-29.3-30.81-51-61.87-64.73q-4.69-1.61-9.22-3.26c-22.15-4.4-41.73-7.19-55.31-8.85a3.59,3.59,0,0,0-2.4,6.57q4.2,2.7,8.38,5.7c43.83,31.43,62.08,71.32,52.8,115.4-.26,3-2.3,21-16.52,51.72C240.47,529,211.6,577.63,153,639c-39.45,41.36-68.11,69.65-88.73,89,17.54-11.28,38.57-25.4,61.36-41.91C182.89,644.63,263.18,579.2,320.6,503Z" transform="translate(-13.8 -7.28)"/><path class="cls-2" d="M227.41,311.44c-32.85-16.35-54-34.47-63.21-54.16-10.09-21.67-3.14-39.52.2-48.1l.42-1.09C180,168.56,220.79,122,286,69.8c13.6-10.89,26.89-20.89,39-29.66-12.51,6.87-26.33,15-40.81,24.56C234.62,97.3,167.15,152.75,127.4,231.75c-9.36,18.6-10.53,34.07-3.47,46,5.55,9.38,15.52,15.81,26.27,20.23,1.67.52,5.54,1.76,10.94,3.8a158.58,158.58,0,0,0,34,5.74v.16C199.41,308,211.18,309.16,227.41,311.44Z" transform="translate(-13.8 -7.28)"/><path class="cls-3" d="M174.15,211.68l-.43,1.12c-3.06,7.85-8.74,22.46-.45,40.26,11.24,24.14,43.67,46.16,96.45,65.52,7.68,1.53,15.65,3.25,23.78,5.17,53.39,12.67,94.11,29.48,121.63,50.14-11.26-13.85-24.52-25.73-38.55-34a240.38,240.38,0,0,0-77.71-28.65c-16.85-3.17-40.79-9.66-59.11-22.67C217.7,273,208.69,251.92,213,226.1c.36-4.78,5.75-53.89,76.77-133.08,16.62-18.53,30.28-33.26,41.49-45C276.61,87.69,196.58,153.31,174.15,211.68Z" transform="translate(-13.8 -7.28)"/><path class="cls-4" d="M329,343.93a5.11,5.11,0,0,0-5.28,8.35A112.69,112.69,0,0,1,348,393.15c13.27,38.8,6,82.11-19.39,115.84-58.2,77.26-139.36,143.41-197.2,185.3-16.08,11.65-31.31,22.13-45.06,31.26,38.15-18.17,86.62-42.41,135.35-69.82,138.42-77.88,216-145.68,224.32-196,3.43-20.72-1.59-39.82-14.91-56.78C409.76,375.74,370,356.88,329,343.93Z" transform="translate(-13.8 -7.28)"/><path d="M455.33,429.73c-10.27-39-39.88-78.59-73.69-98.43a250.44,250.44,0,0,0-80.92-29.85c-32.71-6.14-86.31-23.9-77.83-73.93L223,227c0-.48,3.78-48.7,74.26-127.28C358,31.93,382.35,7.3,382.38,7.28c-.44.17-48.59,12.89-103.44,48.92a538.42,538.42,0,0,0-86.17,69.7c-31.27,31.42-56.27,65.52-74.3,101.35-11,21.85-12,40.55-3.14,55.6,6.86,11.56,18.71,19.27,31.21,24.42v0l.33.1c3.68,1.5,7.41,2.78,11.07,3.87,12.72,4.83,34.15,14.19,54.34,28.67,41,29.42,57.45,64.92,48.78,105.52l-.08.37,0,.37c0,.17-1.27,17.8-16,49.36-13.64,29.19-41.9,76.58-99.13,136.57C36.93,746.26,14.73,763,13.8,763.47c0,0,119.89-46.77,212.71-99C369.73,583.91,446.9,515.55,455.87,461.32a81.23,81.23,0,0,0-.76-31.53ZM289.76,93c-71,79.19-76.41,128.3-76.77,133.08-4.3,25.82,4.71,46.85,26.77,62.51,18.32,13,42.26,19.5,59.11,22.67a240.38,240.38,0,0,1,77.71,28.65c14,8.23,27.29,20.11,38.55,34-27.52-20.66-68.24-37.47-121.63-50.14-8.13-1.92-16.1-3.64-23.78-5.17-52.78-19.36-85.21-41.38-96.45-65.52-8.29-17.8-2.61-32.41.45-40.26l.43-1.12c22.43-58.37,102.46-124,157.1-163.63C320,59.76,306.38,74.49,289.76,93ZM161.14,301.76c-5.4-2-9.27-3.28-10.94-3.8-10.75-4.42-20.72-10.85-26.27-20.23-7.06-11.91-5.89-27.38,3.47-46,39.75-79,107.22-134.45,156.81-167C298.69,55.18,312.51,47,325,40.14c-12.1,8.77-25.39,18.77-39,29.66C220.79,122,180,168.56,164.82,208.09l-.42,1.09c-3.34,8.58-10.29,26.43-.2,48.1,9.17,19.69,30.36,37.81,63.21,54.16-16.23-2.28-28-3.4-32.3-3.78v-.16A158.58,158.58,0,0,1,161.14,301.76ZM153,639C211.6,577.63,240.47,529,254.38,498.93c14.22-30.69,16.26-48.71,16.52-51.72,9.28-44.08-9-84-52.8-115.4q-4.18-3-8.38-5.7a3.59,3.59,0,0,1,2.4-6.57c13.58,1.66,33.16,4.45,55.31,8.85q4.51,1.65,9.22,3.26c31.06,13.69,51.86,35.43,61.87,64.73C350.71,432.05,344,471.89,320.6,503c-57.42,76.23-137.71,141.66-195,183.14C102.86,702.62,81.83,716.74,64.29,728,84.91,708.69,113.57,680.4,153,639ZM446,459.68c-8.33,50.37-85.9,118.17-224.32,196.05-48.73,27.41-97.2,51.65-135.35,69.82,13.75-9.13,29-19.61,45.06-31.26,57.84-41.89,139-108,197.2-185.3C354,475.26,361.25,432,348,393.15a112.69,112.69,0,0,0-24.25-40.87,5.11,5.11,0,0,1,5.28-8.35c41,12.95,80.75,31.81,102.08,59C444.41,419.86,449.43,439,446,459.68Z" transform="translate(-13.8 -7.28)"/></svg>