<svg id="Layer_1" data-name="Layer 1" xmlns="http://www.w3.org/2000/svg" xmlns:xlink="http://www.w3.org/1999/xlink" viewBox="0 0 331.79 121.24"><defs><style>.cls-1{fill:url(#linear-gradient);}.cls-2{fill:url(#linear-gradient-2);}.cls-3{fill:url(#linear-gradient-3);}.cls-4{fill:url(#linear-gradient-4);}</style><linearGradient id="linear-gradient" x1="36.35" y1="110.76" x2="36.75" y2="65.44" gradientUnits="userSpaceOnUse"><stop offset="0" stop-color="#0077b6"/><stop offset="0.25" stop-color="#0075b3"/><stop offset="0.4" stop-color="#0070ab"/><stop offset="0.52" stop-color="#00669c"/><stop offset="0.64" stop-color="#005988"/><stop offset="0.74" stop-color="#00476d"/><stop offset="0.84" stop-color="#00324c"/><stop offset="0.92" stop-color="#001926"/><stop offset="1"/></linearGradient><linearGradient id="linear-gradient-2" x1="29.79" y1="65.52" x2="55.66" y2="31.63" gradientUnits="userSpaceOnUse"><stop offset="0" stop-color="#0077b6"/><stop offset="1" stop-color="#fff"/></linearGradient><linearGradient id="linear-gradient-3" x1="40.44" y1="69.08" x2="69.75" y2="49.43" gradientUnits="userSpaceOnUse"><stop offset="0" stop-color="#0077b6"/><stop offset="0.12" stop-color="#0479b7"/><stop offset="0.24" stop-color="#1180bb"/><stop offset="0.37" stop-color="#278cc1"/><stop offset="0.5" stop-color="#459cca"/><stop offset="0.63" stop-color="#6cb1d5"/><stop offset="0.77" stop-color="#9ccae3"/><stop offset="0.9" stop-color="#d3e8f2"/><stop offset="1" stop-color="#fff"/></linearGradient><linearGradient id="linear-gradient-4" x1="43.65" y1="103.18" x2="36.61" y2="76.81" xlink:href="#linear-gradient"/></defs><path d="M86,99.56a13.75,13.75,0,0,0-3,8.52,9.59,9.59,0,0,0,4.58,8.47,10.59,10.59,0,0,0,6.06,1.8A12.34,12.34,0,0,0,99.48,117a9.69,9.69,0,0,0,5.28-8.18,7.34,7.34,0,0,0,0-.81,10.87,10.87,0,0,0-1.18-4.64,13.12,13.12,0,0,0-3.86-4.59L89.33,90.57a8.36,8.36,0,0,1-3.42-6.9,10.13,10.13,0,0,1,2.72-7.17A9.59,9.59,0,0,1,96,73.57a24.76,24.76,0,0,1,5,.58h2.32l.12,7.14h-.58a5.53,5.53,0,0,0-2-4.38A7.45,7.45,0,0,0,96,75.31a6.72,6.72,0,0,0-6.88,6.94,6.21,6.21,0,0,0,2.56,5.07l10.73,8.47q6.38,5,6.38,12.18a11.94,11.94,0,0,1-4.24,9.16q-3.64,3.32-9.74,3.31a15.17,15.17,0,0,1-6.61-1.39,11.24,11.24,0,0,1-6.56-8.7A13.74,13.74,0,0,1,81.5,108a13.34,13.34,0,0,1,.81-3.89,13.91,13.91,0,0,1,3.13-5Z" transform="translate(-5.77 -21.04)"/><path d="M142.1,79.55a3.51,3.51,0,0,0-3.3-3.48h-11v34.74a3.72,3.72,0,0,0,3.71,3.6h.75V115h-12.7v-.58h.75a3.75,3.75,0,0,0,3.72-3.54V76.07H113a3.28,3.28,0,0,0-2.35,1.07,3.39,3.39,0,0,0-1,2.41v1l-.58.06V73.28a15.29,15.29,0,0,0,3,.7,25,25,0,0,0,3.94.35h19.6a21.48,21.48,0,0,0,4.73-.44,18.62,18.62,0,0,0,2.29-.61v7.31l-.58-.06Z" transform="translate(-5.77 -21.04)"/><path d="M158.43,76.18h-3.71v34.57a3.49,3.49,0,0,0,1.08,2.58,3.55,3.55,0,0,0,2.63,1.08h.7l.06.58h-12.7v-.58h.75a3.56,3.56,0,0,0,2.58-1,3.59,3.59,0,0,0,1.13-2.55V78.62A3.72,3.72,0,0,0,149.82,76,3.5,3.5,0,0,0,147.24,75h-.75v-.58h15.66c3.51,0,6.28,1,8.29,2.93a10.11,10.11,0,0,1,3,7.59A12.12,12.12,0,0,1,170.59,93a8.86,8.86,0,0,1-7,3.39A8,8,0,0,1,165.66,98a21.77,21.77,0,0,1,2.11,2.47q5,7.13,6.5,8.78c1,1.11,1.72,1.86,2.14,2.27s.89.8,1.4,1.19a8.41,8.41,0,0,0,5.1,1.74V115h-3.19a11.88,11.88,0,0,1-4.64-.9,11.73,11.73,0,0,1-3.22-1.86,21.48,21.48,0,0,1-1.85-1.85q-.8-.9-4.33-6c-2.35-3.4-3.73-5.34-4.11-5.83s-.8-1-1.22-1.42a5.26,5.26,0,0,0-3.71-2v-.58a9.79,9.79,0,0,0,1.21.06q.77,0,1.86-.06,7.18-.18,9-6a7.66,7.66,0,0,0,.35-2.18v-1.3a10.28,10.28,0,0,0-2-6.27,6.82,6.82,0,0,0-5.17-2.55Q160.53,76.18,158.43,76.18Z" transform="translate(-5.77 -21.04)"/><path d="M186.92,114.41a3.49,3.49,0,0,0,2.58-1.08,3.66,3.66,0,0,0,1.13-2.58V78.27a3,3,0,0,0-1.1-2.35,3.87,3.87,0,0,0-2.61-1h-.69l-.06-.58h17a24.53,24.53,0,0,0,3.92-.35,15.85,15.85,0,0,0,3-.7v7.31h-.58v-1a3.42,3.42,0,0,0-3.24-3.43H194.4V94.11h9.81a2.91,2.91,0,0,0,2-.87,2.76,2.76,0,0,0,.81-2v-.82h.58v9.17H207v-.87a2.74,2.74,0,0,0-.78-2,2.8,2.8,0,0,0-1.94-.87H194.4v17.34h8.3q4.29,0,6.55-1.92a14.06,14.06,0,0,0,3.77-5.68h.58l-3.36,9.4H186.17v-.58Z" transform="translate(-5.77 -21.04)"/><path d="M256.69,114.41h.46V115h-13v-.58h.52a2.17,2.17,0,0,0,1.83-.79,2.42,2.42,0,0,0,.61-1.48,4.55,4.55,0,0,0-.23-1.39l-3.72-9.86H227.45l-3.88,9.92a4.13,4.13,0,0,0-.23,1.36,2.39,2.39,0,0,0,.61,1.45,2.14,2.14,0,0,0,1.82.79h.52V115H214.63v-.58h.53a5.08,5.08,0,0,0,2.84-.93,6.65,6.65,0,0,0,2.26-2.73l13.11-31.2q2.15-4.69,2.15-6H236l15.54,37.18a6.27,6.27,0,0,0,2.21,2.73A5.12,5.12,0,0,0,256.69,114.41ZM228.15,99.15h14.27l-7-18.62Z" transform="translate(-5.77 -21.04)"/><path d="M311.12,114.41h.93V115H299.46v-.53h.87a2.2,2.2,0,0,0,1.68-.75,2.07,2.07,0,0,0,.58-1.74L300,82.8,287.8,109.88a22.81,22.81,0,0,0-2,5.92h-.58L270.4,83.61,267.91,112a2.1,2.1,0,0,0,.58,1.71,2.16,2.16,0,0,0,1.68.78H271V115H259.79v-.58h.93a4.25,4.25,0,0,0,2.81-1,4.09,4.09,0,0,0,1.42-2.67l4.35-37.18h.58l16.18,35,15.84-35h.52l4.46,37.18a4,4,0,0,0,1.45,2.67A4.31,4.31,0,0,0,311.12,114.41Z" transform="translate(-5.77 -21.04)"/><path d="M315.21,112.61a17.49,17.49,0,0,1-.18-3.13,15.6,15.6,0,0,1,.87-4.93h.53c0,.42-.06.85-.06,1.27a8.41,8.41,0,0,0,2.14,5.89,7.33,7.33,0,0,0,5.69,2.35,8.43,8.43,0,0,0,6-2.21,7.23,7.23,0,0,0,2.35-5.53,7.07,7.07,0,0,0-2.26-5.43L319.15,90.57a9.2,9.2,0,0,1-3.13-7,9.94,9.94,0,0,1,2.76-7,9.74,9.74,0,0,1,7.45-2.93,25.09,25.09,0,0,1,5,.58h2.27v7.14H333a5.44,5.44,0,0,0-1.89-4.35,7.17,7.17,0,0,0-4.84-1.63,6.77,6.77,0,0,0-5,2,6.6,6.6,0,0,0-2,4.93,6.71,6.71,0,0,0,2.32,5.1L333,97.88a9.4,9.4,0,0,1,2.9,7.3,10.38,10.38,0,0,1-3,7.63,10.64,10.64,0,0,1-7.89,3,20.81,20.81,0,0,1-5.43-.78A9.55,9.55,0,0,1,315.21,112.61Z" transform="translate(-5.77 -21.04)"/><path d="M81.8,48.5a14.23,14.23,0,0,0-3.12,8.82,9.91,9.91,0,0,0,4.74,8.76,11,11,0,0,0,6.28,1.86,12.76,12.76,0,0,0,6.09-1.38c3.24-1.68,5-4.5,5.46-8.46a7.89,7.89,0,0,0,0-.84,11.35,11.35,0,0,0-1.22-4.8,13.6,13.6,0,0,0-4-4.74L85.29,39.2a8.62,8.62,0,0,1-3.54-7.14,10.43,10.43,0,0,1,2.82-7.41,9.87,9.87,0,0,1,7.61-3,25.37,25.37,0,0,1,5.23.6H99.8l.12,7.38h-.59a5.72,5.72,0,0,0-2.08-4.53,7.68,7.68,0,0,0-5-1.65,6.93,6.93,0,0,0-7.1,7.17,6.42,6.42,0,0,0,2.64,5.25L98.84,44.6q6.61,5.22,6.61,12.6a12.38,12.38,0,0,1-4.38,9.48Q97.28,70.1,91,70.1a15.56,15.56,0,0,1-6.84-1.44,11.57,11.57,0,0,1-6.78-9,13.44,13.44,0,0,1-.19-2.43,13.54,13.54,0,0,1,.85-4,14.18,14.18,0,0,1,3.23-5.13Z" transform="translate(-5.77 -21.04)"/><path d="M138.13,30.25a3.39,3.39,0,0,0-3.19-3.36H124.3V60.43a3.51,3.51,0,0,0,1.09,2.46,3.43,3.43,0,0,0,2.5,1h.72v.56H116.35V63.9h.73a3.59,3.59,0,0,0,3.58-3.41V26.89H110a3.19,3.19,0,0,0-2.27,1,3.31,3.31,0,0,0-.92,2.33v.95l-.56.05v-7a15.54,15.54,0,0,0,2.91.67,24.42,24.42,0,0,0,3.81.34h18.93a20.69,20.69,0,0,0,4.56-.42,18.82,18.82,0,0,0,2.21-.59v7.05l-.56-.05Z" transform="translate(-5.77 -21.04)"/><path d="M143.12,63.9a3.43,3.43,0,0,0,2.5-1,3.64,3.64,0,0,0,1.09-2.5V29a2.88,2.88,0,0,0-1.07-2.26,3.71,3.71,0,0,0-2.52-.93h-.67l0-.56h16.4a23.78,23.78,0,0,0,3.78-.33,15.25,15.25,0,0,0,2.89-.68v7.06h-.56v-1a3.32,3.32,0,0,0-3.14-3.3H150.35V44.3h9.46a2.8,2.8,0,0,0,1.9-.84,2.62,2.62,0,0,0,.79-2v-.78h.56v8.85h-.56v-.84a2.62,2.62,0,0,0-.76-1.91,2.71,2.71,0,0,0-1.87-.84h-9.52V62.73h8q4.14,0,6.32-1.85a13.61,13.61,0,0,0,3.64-5.49h.56l-3.25,9.07H142.4V63.9Z" transform="translate(-5.77 -21.04)"/><path d="M183.24,27h-3.59V60.37a3.42,3.42,0,0,0,1,2.5,3.46,3.46,0,0,0,2.55,1h.67l.05.56H171.7V63.9h.73a3.41,3.41,0,0,0,2.49-1A3.51,3.51,0,0,0,176,60.43V29.35a3.61,3.61,0,0,0-1.09-2.49,3.4,3.4,0,0,0-2.49-1h-.73v-.56h15.12q5.1,0,8,2.83a9.78,9.78,0,0,1,2.91,7.34A11.64,11.64,0,0,1,195,43.21a8.55,8.55,0,0,1-6.75,3.28,7.58,7.58,0,0,1,2,1.54,19.64,19.64,0,0,1,2,2.38q4.81,6.89,6.27,8.48c1,1.06,1.66,1.79,2.08,2.18a13.89,13.89,0,0,0,1.34,1.15,7.39,7.39,0,0,0,1.46.9,7.91,7.91,0,0,0,3.47.78v.56h-3.08a11.43,11.43,0,0,1-4.48-.87,11,11,0,0,1-3.11-1.79A18.86,18.86,0,0,1,194.41,60q-.76-.87-4.17-5.8c-2.28-3.28-3.61-5.16-4-5.62s-.77-.93-1.18-1.38a5,5,0,0,0-3.58-1.9v-.56a9.26,9.26,0,0,0,1.18.06c.48,0,1.08,0,1.79-.06q6.94-.16,8.73-5.82a7.17,7.17,0,0,0,.34-2.1V35.57a9.88,9.88,0,0,0-2-6.05,6.57,6.57,0,0,0-5-2.47C185.7,27,184.58,27,183.24,27Z" transform="translate(-5.77 -21.04)"/><path d="M211.89,63.9a3.39,3.39,0,0,0,2.49-1,3.59,3.59,0,0,0,1.09-2.5v-31a3.57,3.57,0,0,0-1.09-2.49,3.4,3.4,0,0,0-2.49-1h-.73v-.56h12.27v.56h-.73a3.58,3.58,0,0,0-3.59,3.53V62.73h8a9.58,9.58,0,0,0,6.33-1.85,13.61,13.61,0,0,0,3.64-5.49h.56l-3.25,9.07H211.16V63.9Z" transform="translate(-5.77 -21.04)"/><path d="M239.41,63.9a3.39,3.39,0,0,0,2.49-1,3.59,3.59,0,0,0,1.09-2.5V29.29a3.59,3.59,0,0,0-3.58-3.47h-.73v-.56h12.26v.56h-.72a3.59,3.59,0,0,0-3.59,3.47V60.37a3.37,3.37,0,0,0,1.07,2.5,3.49,3.49,0,0,0,2.52,1h.72v.56H238.68V63.9Z" transform="translate(-5.77 -21.04)"/><path d="M296.32,25.82a3.34,3.34,0,0,0-2.41,1,3.44,3.44,0,0,0-1.07,2.38v28.9a44.8,44.8,0,0,0,.4,6.16l.11,1h-.51l-30.52-32.6V60.54a3.19,3.19,0,0,0,1,2.38,3.31,3.31,0,0,0,2.41,1h1.06v.56H255.27V63.9h1.06a3.31,3.31,0,0,0,2.41-1,3.25,3.25,0,0,0,1-2.43V31.42a42.75,42.75,0,0,0-.39-6.1l-.12-.9h.56L290.32,57V29.24a3.45,3.45,0,0,0-1.06-2.44,3.35,3.35,0,0,0-2.41-1h-1.06v-.56h11.53v.56Z" transform="translate(-5.77 -21.04)"/><path d="M303.15,59.59q-5.58-5.6-5.57-14.73t5.57-14.75q5.57-5.64,14.53-5.63a24.48,24.48,0,0,1,13.61,3.81l1.12,7.89h-.51A12.48,12.48,0,0,0,327,28.76a15.84,15.84,0,0,0-9.27-2.6,14.42,14.42,0,0,0-11.51,5.15q-4.4,5.15-4.4,13.55t4.4,13.53a14.63,14.63,0,0,0,11.51,5.18,18.65,18.65,0,0,0,6.91-1.29,17.93,17.93,0,0,0,5.74-3.59V48.78a2.31,2.31,0,0,0-.75-1.87,3.12,3.12,0,0,0-2.1-.65h-.9V45.7h11v.56h-.84a3.14,3.14,0,0,0-2.13.65,2.21,2.21,0,0,0-.67,1.87V58a17.87,17.87,0,0,1-3.47,3.42A19.6,19.6,0,0,1,325,64.1a22.94,22.94,0,0,1-7.36,1.15Q308.72,65.19,303.15,59.59Z" transform="translate(-5.77 -21.04)"/><g id="Shaded_Color_v2" data-name="Shaded Color v2"><path class="cls-1" d="M55,100.51a18.48,18.48,0,0,0,2.87-17.09,17.23,17.23,0,0,0-9.92-10.37l-1.48-.53c-3.55-.7-6.69-1.15-8.86-1.41a.57.57,0,0,0-.39,1c.45.29.9.59,1.34.91,7,5,10,11.44,8.47,18.5a26.66,26.66,0,0,1-2.65,8.3c-2.23,4.81-6.86,12.61-16.25,22.46C21.76,129,17.17,133.5,13.86,136.6c2.82-1.81,6.19-4.08,9.84-6.72C32.88,123.23,45.75,112.74,55,100.51Z" transform="translate(-5.77 -21.04)"/><path class="cls-2" d="M40,69.81c-5.27-2.62-8.67-5.53-10.14-8.69a9.24,9.24,0,0,1,0-7.71l.07-.17c2.44-6.34,9-13.8,19.44-22.18,2.18-1.74,4.31-3.35,6.25-4.75-2,1.1-4.22,2.41-6.55,3.94C41.17,35.47,30.36,44.36,24,57c-1.5,3-1.69,5.46-.55,7.37a8.49,8.49,0,0,0,4.21,3.25c.27.08.89.28,1.75.6a24.69,24.69,0,0,0,5.45.92v0C35.53,69.26,37.41,69.44,40,69.81Z" transform="translate(-5.77 -21.04)"/><path class="cls-3" d="M31.48,53.81l-.07.18a7.68,7.68,0,0,0-.07,6.46c1.8,3.87,7,7.4,15.46,10.5,1.23.25,2.51.52,3.81.83,8.56,2,15.09,4.73,19.5,8a23.44,23.44,0,0,0-6.18-5.45,38.62,38.62,0,0,0-12.46-4.59A25,25,0,0,1,42,66.15a9.63,9.63,0,0,1-4.3-10c.06-.76.93-8.64,12.31-21.33,2.67-3,4.86-5.34,6.65-7.21C47.9,33.93,35.07,44.45,31.48,53.81Z" transform="translate(-5.77 -21.04)"/><path class="cls-4" d="M56.31,75a.81.81,0,0,0-.85,1.33,18.15,18.15,0,0,1,3.89,6.56,20.08,20.08,0,0,1-3.11,18.57c-9.33,12.39-22.34,23-31.62,29.71-2.58,1.87-5,3.55-7.22,5,6.11-2.91,13.89-6.8,21.7-11.19,22.19-12.49,34.63-23.36,36-31.44a11.23,11.23,0,0,0-2.39-9.1C69.25,80.12,62.88,77.09,56.31,75Z" transform="translate(-5.77 -21.04)"/><path d="M76.56,88.77A27.51,27.51,0,0,0,64.74,73a40.21,40.21,0,0,0-13-4.79c-5.24-1-13.84-3.83-12.48-11.85v-.09c0-.07.61-7.8,11.91-20.4C61,25,64.86,21,64.86,21a63.4,63.4,0,0,0-16.58,7.84A86.67,86.67,0,0,0,34.46,40.06,63.89,63.89,0,0,0,22.55,56.31c-1.76,3.5-1.93,6.5-.5,8.91a10.11,10.11,0,0,0,5,3.92h0l.05,0c.59.24,1.19.44,1.78.62a38.91,38.91,0,0,1,8.71,4.6c6.58,4.71,9.21,10.4,7.82,16.91v.12s-.2,2.86-2.57,7.92c-2.18,4.68-6.71,12.27-15.89,21.89-17.45,18.3-21,21-21.16,21.06,0,0,19.22-7.5,34.1-15.87,23-12.92,35.34-23.88,36.78-32.57a13,13,0,0,0-.13-5.06ZM50,34.79C38.63,47.48,37.76,55.36,37.7,56.12a9.63,9.63,0,0,0,4.3,10,25,25,0,0,0,9.47,3.63,38.62,38.62,0,0,1,12.46,4.59,23.44,23.44,0,0,1,6.18,5.45c-4.41-3.31-10.94-6-19.5-8-1.3-.31-2.58-.58-3.81-.83-8.46-3.1-13.66-6.63-15.46-10.5A7.68,7.68,0,0,1,31.41,54l.07-.18c3.59-9.36,16.42-19.88,25.18-26.23C54.87,29.45,52.68,31.82,50,34.79ZM29.39,68.25c-.86-.32-1.48-.52-1.75-.6a8.49,8.49,0,0,1-4.21-3.25C22.29,62.49,22.48,60,24,57c6.38-12.67,17.19-21.56,25.14-26.78,2.33-1.53,4.54-2.84,6.55-3.94-1.94,1.4-4.07,3-6.25,4.75C39,39.44,32.42,46.9,30,53.24l-.07.17a9.24,9.24,0,0,0,0,7.71c1.47,3.16,4.87,6.07,10.14,8.69-2.61-.37-4.49-.55-5.18-.61v0A24.69,24.69,0,0,1,29.39,68.25Zm-1.3,54.08c9.39-9.85,14-17.65,16.25-22.46A26.66,26.66,0,0,0,47,91.57c1.49-7.06-1.44-13.46-8.47-18.5-.44-.32-.89-.62-1.34-.91a.57.57,0,0,1,.39-1c2.17.26,5.31.71,8.86,1.41l1.48.53a17.23,17.23,0,0,1,9.92,10.37A18.48,18.48,0,0,1,55,100.51c-9.21,12.23-22.08,22.72-31.26,29.37-3.65,2.64-7,4.91-9.84,6.72C17.17,133.5,21.76,129,28.09,122.33Zm47-28.76c-1.33,8.08-13.77,19-36,31.44-7.81,4.39-15.59,8.28-21.7,11.19,2.2-1.46,4.64-3.14,7.22-5,9.28-6.72,22.29-17.32,31.62-29.71a20.08,20.08,0,0,0,3.11-18.57,18.15,18.15,0,0,0-3.89-6.56A.81.81,0,0,1,56.31,75c6.57,2.07,12.94,5.1,16.36,9.45A11.23,11.23,0,0,1,75.06,93.57Z" transform="translate(-5.77 -21.04)"/></g></svg>